<svg width="130" height="21" viewBox="0 0 130 21" fill="none" xmlns="http://www.w3.org/2000/svg">
<path fill-rule="evenodd" clip-rule="evenodd" d="M12 2.5H8V6.5H4H0V10.5V14.5V18.5H4H8V14.5H12H16V10.5V6.5V2.5H12ZM4 14.5H8V10.5H12V6.5H8V10.5H4V14.5Z" fill="white"/>
<path d="M29.584 16L26.664 7.08C26.7013 7.32 26.7413 7.61067 26.784 7.952C26.832 8.288 26.8773 8.664 26.92 9.08C26.9627 9.49067 26.9973 9.928 27.024 10.392C27.0507 10.856 27.064 11.3307 27.064 11.816V16H24.832V4.912H28.104L30.936 13.784C30.8773 13.448 30.816 13.048 30.752 12.584C30.6933 12.1147 30.6427 11.592 30.6 11.016C30.5573 10.44 30.536 9.82133 30.536 9.16V4.912H32.768V16H29.584ZM37.2418 7.504V13.32C37.2418 13.7307 37.3164 14.0133 37.4658 14.168C37.6204 14.3227 37.8338 14.4 38.1058 14.4C38.3671 14.4 38.6284 14.3173 38.8898 14.152C39.1511 13.9867 39.3698 13.7627 39.5458 13.48V7.504H42.0738V16H39.8658L39.7538 15.008C39.4658 15.424 39.0871 15.7387 38.6178 15.952C38.1484 16.1653 37.6578 16.272 37.1458 16.272C36.3244 16.272 35.7138 16.0347 35.3138 15.56C34.9138 15.08 34.7138 14.4373 34.7138 13.632V7.504H37.2418ZM52.3715 7.504L49.5795 11.264L52.6035 16H49.7235L46.9315 11.344L49.7235 7.504H52.3715ZM46.8355 3.864V16H44.3075V4.128L46.8355 3.864ZM61.9333 7.504L59.1013 16C58.8506 16.752 58.5173 17.3813 58.1013 17.888C57.6906 18.4 57.1759 18.7947 56.5573 19.072C55.9439 19.3493 55.2053 19.512 54.3413 19.56L54.0533 17.776C54.6133 17.7067 55.0639 17.6027 55.4053 17.464C55.7519 17.3253 56.0293 17.136 56.2373 16.896C56.4506 16.6613 56.6346 16.3627 56.7893 16H55.9253L53.2293 7.504H55.9013L57.5493 14.384L59.3413 7.504H61.9333ZM68.687 7.504V14.272H70.847V16H63.751V14.272H66.159V9.232H63.831V7.504H68.687ZM67.159 3.056C67.5963 3.056 67.9537 3.192 68.231 3.464C68.5083 3.736 68.647 4.07467 68.647 4.48C68.647 4.88533 68.5083 5.22667 68.231 5.504C67.9537 5.776 67.5963 5.912 67.159 5.912C66.7163 5.912 66.3537 5.776 66.071 5.504C65.7937 5.22667 65.655 4.88533 65.655 4.48C65.655 4.07467 65.7937 3.736 66.071 3.464C66.3537 3.192 66.7163 3.056 67.159 3.056ZM73.1688 16V14.304H74.2888V9.184H73.1688V7.504H76.2168L76.6808 9.416C76.9848 8.68533 77.3714 8.14133 77.8408 7.784C78.3154 7.42667 78.8941 7.248 79.5768 7.248C79.8648 7.248 80.1208 7.272 80.3448 7.32C80.5688 7.36267 80.7794 7.424 80.9768 7.504L80.2088 9.592C80.0541 9.54933 79.8994 9.51733 79.7448 9.496C79.5901 9.47467 79.4194 9.464 79.2328 9.464C78.6781 9.464 78.1901 9.69067 77.7688 10.144C77.3528 10.5973 77.0354 11.1733 76.8168 11.872V14.304H78.4968V16H73.1688ZM78.9208 11.056V8.576L79.2968 7.504H80.9768L80.5048 11.056H78.9208ZM85.2105 3.88V8.344C85.5678 7.96533 85.9545 7.68533 86.3705 7.504C86.7918 7.31733 87.2372 7.224 87.7065 7.224C88.4638 7.224 89.0425 7.44533 89.4425 7.888C89.8425 8.33067 90.0425 8.95467 90.0425 9.76V16H87.5145V10.464C87.5145 9.952 87.4558 9.59467 87.3385 9.392C87.2265 9.18933 87.0132 9.088 86.6985 9.088C86.5225 9.088 86.3492 9.13067 86.1785 9.216C86.0132 9.296 85.8505 9.41333 85.6905 9.568C85.5305 9.72267 85.3705 9.90667 85.2105 10.12V16H82.6825V4.128L85.2105 3.88ZM99.4283 13.552C99.4283 13.872 99.4709 14.104 99.5563 14.248C99.6469 14.392 99.7909 14.5013 99.9883 14.576L99.4683 16.24C98.9669 16.192 98.5429 16.0827 98.1963 15.912C97.8549 15.736 97.5856 15.472 97.3883 15.12C97.0629 15.5093 96.6469 15.8 96.1403 15.992C95.6336 16.1787 95.1163 16.272 94.5883 16.272C93.7136 16.272 93.0149 16.024 92.4923 15.528C91.9749 15.0267 91.7163 14.384 91.7163 13.6C91.7163 12.6773 92.0763 11.9653 92.7963 11.464C93.5216 10.9627 94.5403 10.712 95.8523 10.712H96.9963V10.392C96.9963 9.94933 96.8523 9.62133 96.5643 9.408C96.2816 9.19467 95.8656 9.088 95.3163 9.088C95.0443 9.088 94.6949 9.128 94.2683 9.208C93.8416 9.28267 93.4149 9.392 92.9883 9.536L92.4043 7.856C92.9536 7.648 93.5243 7.49067 94.1163 7.384C94.7136 7.27733 95.2469 7.224 95.7163 7.224C96.9803 7.224 97.9136 7.48267 98.5163 8C99.1243 8.512 99.4283 9.25333 99.4283 10.224V13.552ZM95.4603 14.464C95.7323 14.464 96.0176 14.384 96.3163 14.224C96.6149 14.0587 96.8416 13.8267 96.9963 13.528V12.152H96.3723C95.6683 12.152 95.1509 12.2613 94.8203 12.48C94.4896 12.6933 94.3243 13.008 94.3243 13.424C94.3243 13.7493 94.4229 14.0053 94.6203 14.192C94.8229 14.3733 95.1029 14.464 95.4603 14.464ZM108.15 7.224C108.555 7.224 108.889 7.30933 109.15 7.48C109.411 7.65067 109.606 7.92 109.734 8.288C109.862 8.65067 109.926 9.12533 109.926 9.712V16H107.758V10C107.758 9.70133 107.729 9.49067 107.67 9.368C107.617 9.24533 107.505 9.184 107.334 9.184C107.201 9.184 107.062 9.224 106.918 9.304C106.779 9.37867 106.625 9.52267 106.454 9.736V16H104.678V10C104.678 9.70133 104.649 9.49067 104.59 9.368C104.537 9.24533 104.425 9.184 104.254 9.184C104.121 9.184 103.982 9.224 103.838 9.304C103.699 9.37867 103.545 9.52267 103.374 9.736V16H101.174V7.504H103.03L103.198 8.328C103.465 7.96533 103.734 7.69067 104.006 7.504C104.278 7.31733 104.601 7.224 104.974 7.224C105.294 7.224 105.566 7.30667 105.79 7.472C106.019 7.632 106.182 7.88533 106.278 8.232C106.534 7.93333 106.817 7.69067 107.126 7.504C107.435 7.31733 107.777 7.224 108.15 7.224ZM111.464 16V7.504H113.672L113.848 8.488C114.226 8.06133 114.626 7.744 115.048 7.536C115.469 7.328 115.949 7.224 116.488 7.224C117.213 7.224 117.784 7.44533 118.2 7.888C118.616 8.33067 118.824 8.95467 118.824 9.76V16H116.296V10.488C116.296 10.1413 116.272 9.86667 116.224 9.664C116.176 9.456 116.09 9.30933 115.968 9.224C115.85 9.13333 115.688 9.088 115.48 9.088C115.304 9.088 115.13 9.128 114.96 9.208C114.794 9.28267 114.632 9.392 114.472 9.536C114.312 9.68 114.152 9.85333 113.992 10.056V16H111.464ZM128.21 13.552C128.21 13.872 128.252 14.104 128.338 14.248C128.428 14.392 128.572 14.5013 128.77 14.576L128.25 16.24C127.748 16.192 127.324 16.0827 126.978 15.912C126.636 15.736 126.367 15.472 126.17 15.12C125.844 15.5093 125.428 15.8 124.922 15.992C124.415 16.1787 123.898 16.272 123.37 16.272C122.495 16.272 121.796 16.024 121.274 15.528C120.756 15.0267 120.498 14.384 120.498 13.6C120.498 12.6773 120.858 11.9653 121.578 11.464C122.303 10.9627 123.322 10.712 124.634 10.712H125.778V10.392C125.778 9.94933 125.634 9.62133 125.346 9.408C125.063 9.19467 124.647 9.088 124.098 9.088C123.826 9.088 123.476 9.128 123.05 9.208C122.623 9.28267 122.196 9.392 121.77 9.536L121.186 7.856C121.735 7.648 122.306 7.49067 122.898 7.384C123.495 7.27733 124.028 7.224 124.498 7.224C125.762 7.224 126.695 7.48267 127.298 8C127.906 8.512 128.21 9.25333 128.21 10.224V13.552ZM124.242 14.464C124.514 14.464 124.799 14.384 125.098 14.224C125.396 14.0587 125.623 13.8267 125.778 13.528V12.152H125.154C124.45 12.152 123.932 12.2613 123.602 12.48C123.271 12.6933 123.106 13.008 123.106 13.424C123.106 13.7493 123.204 14.0053 123.402 14.192C123.604 14.3733 123.884 14.464 124.242 14.464Z" fill="white"/>
</svg>
