<svg width="131" height="21" viewBox="0 0 131 21" fill="none" xmlns="http://www.w3.org/2000/svg">
<path fill-rule="evenodd" clip-rule="evenodd" d="M12.5 2.5H8.5V6.5H4.5H0.5V10.5V14.5V18.5H4.5H8.5V14.5H12.5H16.5V10.5V6.5V2.5H12.5ZM4.5 14.5H8.5V10.5H12.5V6.5H8.5V10.5H4.5V14.5Z" fill="#282C33"/>
<path d="M30.084 16L27.164 7.08C27.2013 7.32 27.2413 7.61067 27.284 7.952C27.332 8.288 27.3773 8.664 27.42 9.08C27.4627 9.49067 27.4973 9.928 27.524 10.392C27.5507 10.856 27.564 11.3307 27.564 11.816V16H25.332V4.912H28.604L31.436 13.784C31.3773 13.448 31.316 13.048 31.252 12.584C31.1933 12.1147 31.1427 11.592 31.1 11.016C31.0573 10.44 31.036 9.82133 31.036 9.16V4.912H33.268V16H30.084ZM37.7418 7.504V13.32C37.7418 13.7307 37.8164 14.0133 37.9658 14.168C38.1204 14.3227 38.3338 14.4 38.6058 14.4C38.8671 14.4 39.1284 14.3173 39.3898 14.152C39.6511 13.9867 39.8698 13.7627 40.0458 13.48V7.504H42.5738V16H40.3658L40.2538 15.008C39.9658 15.424 39.5871 15.7387 39.1178 15.952C38.6484 16.1653 38.1578 16.272 37.6458 16.272C36.8244 16.272 36.2138 16.0347 35.8138 15.56C35.4138 15.08 35.2138 14.4373 35.2138 13.632V7.504H37.7418ZM52.8715 7.504L50.0795 11.264L53.1035 16H50.2235L47.4315 11.344L50.2235 7.504H52.8715ZM47.3355 3.864V16H44.8075V4.128L47.3355 3.864ZM62.4333 7.504L59.6013 16C59.3506 16.752 59.0173 17.3813 58.6013 17.888C58.1906 18.4 57.6759 18.7947 57.0573 19.072C56.4439 19.3493 55.7053 19.512 54.8413 19.56L54.5533 17.776C55.1133 17.7067 55.5639 17.6027 55.9053 17.464C56.2519 17.3253 56.5293 17.136 56.7373 16.896C56.9506 16.6613 57.1346 16.3627 57.2893 16H56.4253L53.7293 7.504H56.4013L58.0493 14.384L59.8413 7.504H62.4333ZM69.187 7.504V14.272H71.347V16H64.251V14.272H66.659V9.232H64.331V7.504H69.187ZM67.659 3.056C68.0963 3.056 68.4537 3.192 68.731 3.464C69.0083 3.736 69.147 4.07467 69.147 4.48C69.147 4.88533 69.0083 5.22667 68.731 5.504C68.4537 5.776 68.0963 5.912 67.659 5.912C67.2163 5.912 66.8537 5.776 66.571 5.504C66.2937 5.22667 66.155 4.88533 66.155 4.48C66.155 4.07467 66.2937 3.736 66.571 3.464C66.8537 3.192 67.2163 3.056 67.659 3.056ZM73.6688 16V14.304H74.7888V9.184H73.6688V7.504H76.7168L77.1808 9.416C77.4848 8.68533 77.8714 8.14133 78.3408 7.784C78.8154 7.42667 79.3941 7.248 80.0768 7.248C80.3648 7.248 80.6208 7.272 80.8448 7.32C81.0688 7.36267 81.2794 7.424 81.4768 7.504L80.7088 9.592C80.5541 9.54933 80.3994 9.51733 80.2448 9.496C80.0901 9.47467 79.9194 9.464 79.7328 9.464C79.1781 9.464 78.6901 9.69067 78.2688 10.144C77.8528 10.5973 77.5354 11.1733 77.3168 11.872V14.304H78.9968V16H73.6688ZM79.4208 11.056V8.576L79.7968 7.504H81.4768L81.0048 11.056H79.4208ZM85.7105 3.88V8.344C86.0678 7.96533 86.4545 7.68533 86.8705 7.504C87.2918 7.31733 87.7372 7.224 88.2065 7.224C88.9638 7.224 89.5425 7.44533 89.9425 7.888C90.3425 8.33067 90.5425 8.95467 90.5425 9.76V16H88.0145V10.464C88.0145 9.952 87.9558 9.59467 87.8385 9.392C87.7265 9.18933 87.5132 9.088 87.1985 9.088C87.0225 9.088 86.8492 9.13067 86.6785 9.216C86.5132 9.296 86.3505 9.41333 86.1905 9.568C86.0305 9.72267 85.8705 9.90667 85.7105 10.12V16H83.1825V4.128L85.7105 3.88ZM99.9283 13.552C99.9283 13.872 99.9709 14.104 100.056 14.248C100.147 14.392 100.291 14.5013 100.488 14.576L99.9683 16.24C99.4669 16.192 99.0429 16.0827 98.6963 15.912C98.3549 15.736 98.0856 15.472 97.8883 15.12C97.5629 15.5093 97.1469 15.8 96.6403 15.992C96.1336 16.1787 95.6163 16.272 95.0883 16.272C94.2136 16.272 93.5149 16.024 92.9923 15.528C92.4749 15.0267 92.2163 14.384 92.2163 13.6C92.2163 12.6773 92.5763 11.9653 93.2963 11.464C94.0216 10.9627 95.0403 10.712 96.3523 10.712H97.4963V10.392C97.4963 9.94933 97.3523 9.62133 97.0643 9.408C96.7816 9.19467 96.3656 9.088 95.8163 9.088C95.5443 9.088 95.1949 9.128 94.7683 9.208C94.3416 9.28267 93.9149 9.392 93.4883 9.536L92.9043 7.856C93.4536 7.648 94.0243 7.49067 94.6163 7.384C95.2136 7.27733 95.7469 7.224 96.2163 7.224C97.4803 7.224 98.4136 7.48267 99.0163 8C99.6243 8.512 99.9283 9.25333 99.9283 10.224V13.552ZM95.9603 14.464C96.2323 14.464 96.5176 14.384 96.8163 14.224C97.1149 14.0587 97.3416 13.8267 97.4963 13.528V12.152H96.8723C96.1683 12.152 95.6509 12.2613 95.3203 12.48C94.9896 12.6933 94.8243 13.008 94.8243 13.424C94.8243 13.7493 94.9229 14.0053 95.1203 14.192C95.3229 14.3733 95.6029 14.464 95.9603 14.464ZM108.65 7.224C109.055 7.224 109.389 7.30933 109.65 7.48C109.911 7.65067 110.106 7.92 110.234 8.288C110.362 8.65067 110.426 9.12533 110.426 9.712V16H108.258V10C108.258 9.70133 108.229 9.49067 108.17 9.368C108.117 9.24533 108.005 9.184 107.834 9.184C107.701 9.184 107.562 9.224 107.418 9.304C107.279 9.37867 107.125 9.52267 106.954 9.736V16H105.178V10C105.178 9.70133 105.149 9.49067 105.09 9.368C105.037 9.24533 104.925 9.184 104.754 9.184C104.621 9.184 104.482 9.224 104.338 9.304C104.199 9.37867 104.045 9.52267 103.874 9.736V16H101.674V7.504H103.53L103.698 8.328C103.965 7.96533 104.234 7.69067 104.506 7.504C104.778 7.31733 105.101 7.224 105.474 7.224C105.794 7.224 106.066 7.30667 106.29 7.472C106.519 7.632 106.682 7.88533 106.778 8.232C107.034 7.93333 107.317 7.69067 107.626 7.504C107.935 7.31733 108.277 7.224 108.65 7.224ZM111.964 16V7.504H114.172L114.348 8.488C114.726 8.06133 115.126 7.744 115.548 7.536C115.969 7.328 116.449 7.224 116.988 7.224C117.713 7.224 118.284 7.44533 118.7 7.888C119.116 8.33067 119.324 8.95467 119.324 9.76V16H116.796V10.488C116.796 10.1413 116.772 9.86667 116.724 9.664C116.676 9.456 116.59 9.30933 116.468 9.224C116.35 9.13333 116.188 9.088 115.98 9.088C115.804 9.088 115.63 9.128 115.46 9.208C115.294 9.28267 115.132 9.392 114.972 9.536C114.812 9.68 114.652 9.85333 114.492 10.056V16H111.964ZM128.71 13.552C128.71 13.872 128.752 14.104 128.838 14.248C128.928 14.392 129.072 14.5013 129.27 14.576L128.75 16.24C128.248 16.192 127.824 16.0827 127.478 15.912C127.136 15.736 126.867 15.472 126.67 15.12C126.344 15.5093 125.928 15.8 125.422 15.992C124.915 16.1787 124.398 16.272 123.87 16.272C122.995 16.272 122.296 16.024 121.774 15.528C121.256 15.0267 120.998 14.384 120.998 13.6C120.998 12.6773 121.358 11.9653 122.078 11.464C122.803 10.9627 123.822 10.712 125.134 10.712H126.278V10.392C126.278 9.94933 126.134 9.62133 125.846 9.408C125.563 9.19467 125.147 9.088 124.598 9.088C124.326 9.088 123.976 9.128 123.55 9.208C123.123 9.28267 122.696 9.392 122.27 9.536L121.686 7.856C122.235 7.648 122.806 7.49067 123.398 7.384C123.995 7.27733 124.528 7.224 124.998 7.224C126.262 7.224 127.195 7.48267 127.798 8C128.406 8.512 128.71 9.25333 128.71 10.224V13.552ZM124.742 14.464C125.014 14.464 125.299 14.384 125.598 14.224C125.896 14.0587 126.123 13.8267 126.278 13.528V12.152H125.654C124.95 12.152 124.432 12.2613 124.102 12.48C123.771 12.6933 123.606 13.008 123.606 13.424C123.606 13.7493 123.704 14.0053 123.902 14.192C124.104 14.3733 124.384 14.464 124.742 14.464Z" fill="#282C33"/>
</svg>
