<svg width="140" height="21" viewBox="0 0 140 21" fill="none" xmlns="http://www.w3.org/2000/svg">
<path fill-rule="evenodd" clip-rule="evenodd" d="M12 2.5H8V6.5H4H0V10.5V14.5V18.5H4H8V14.5H12H16V10.5V6.5V2.5H12ZM4 14.5H8V10.5H12V6.5H8V10.5H4V14.5Z" fill="white"/>
<path d="M30.4 13.608H27.152L26.568 16H23.824L27.216 4.912H30.4L33.792 16H30.984L30.4 13.608ZM27.568 11.704H29.968L28.768 6.8L27.568 11.704ZM37.2418 3.88V8.344C37.5991 7.96533 37.9858 7.68533 38.4018 7.504C38.8231 7.31733 39.2684 7.224 39.7378 7.224C40.4951 7.224 41.0738 7.44533 41.4738 7.888C41.8738 8.33067 42.0738 8.95467 42.0738 9.76V16H39.5458V10.464C39.5458 9.952 39.4871 9.59467 39.3698 9.392C39.2578 9.18933 39.0444 9.088 38.7298 9.088C38.5538 9.088 38.3804 9.13067 38.2098 9.216C38.0444 9.296 37.8818 9.41333 37.7218 9.568C37.5618 9.72267 37.4018 9.90667 37.2418 10.12V16H34.7138V4.128L37.2418 3.88ZM48.7395 4.128V13.328C48.7395 13.6693 48.8355 13.9147 49.0275 14.064C49.2248 14.208 49.4942 14.28 49.8355 14.28C50.0542 14.28 50.2648 14.256 50.4675 14.208C50.6702 14.1547 50.8595 14.0933 51.0355 14.024L51.6435 15.712C51.3555 15.8613 51.0088 15.992 50.6035 16.104C50.1982 16.216 49.7262 16.272 49.1875 16.272C48.1635 16.272 47.4115 15.9787 46.9315 15.392C46.4515 14.8 46.2115 14.008 46.2115 13.016V5.856H43.7075V4.128H48.7395ZM56.4293 7.504V13.32C56.4293 13.7307 56.5039 14.0133 56.6533 14.168C56.8079 14.3227 57.0213 14.4 57.2933 14.4C57.5546 14.4 57.8159 14.3173 58.0773 14.152C58.3386 13.9867 58.5573 13.7627 58.7333 13.48V7.504H61.2613V16H59.0533L58.9413 15.008C58.6533 15.424 58.2746 15.7387 57.8053 15.952C57.3359 16.1653 56.8453 16.272 56.3333 16.272C55.5119 16.272 54.9013 16.0347 54.5013 15.56C54.1013 15.08 53.9013 14.4373 53.9013 13.632V7.504H56.4293ZM63.495 16V7.504H65.703L65.879 8.488C66.2577 8.06133 66.6577 7.744 67.079 7.536C67.5003 7.328 67.9803 7.224 68.519 7.224C69.2443 7.224 69.815 7.44533 70.231 7.888C70.647 8.33067 70.855 8.95467 70.855 9.76V16H68.327V10.488C68.327 10.1413 68.303 9.86667 68.255 9.664C68.207 9.456 68.1217 9.30933 67.999 9.224C67.8817 9.13333 67.719 9.088 67.511 9.088C67.335 9.088 67.1617 9.128 66.991 9.208C66.8257 9.28267 66.663 9.392 66.503 9.536C66.343 9.68 66.183 9.85333 66.023 10.056V16H63.495ZM73.0888 16V7.504H75.2968L75.4728 8.488C75.8514 8.06133 76.2514 7.744 76.6727 7.536C77.0941 7.328 77.5741 7.224 78.1128 7.224C78.8381 7.224 79.4088 7.44533 79.8248 7.888C80.2408 8.33067 80.4488 8.95467 80.4488 9.76V16H77.9208V10.488C77.9208 10.1413 77.8968 9.86667 77.8488 9.664C77.8008 9.456 77.7154 9.30933 77.5928 9.224C77.4754 9.13333 77.3128 9.088 77.1048 9.088C76.9288 9.088 76.7554 9.128 76.5848 9.208C76.4194 9.28267 76.2568 9.392 76.0968 9.536C75.9368 9.68 75.7768 9.85333 75.6168 10.056V16H73.0888ZM89.8345 13.552C89.8345 13.872 89.8772 14.104 89.9625 14.248C90.0532 14.392 90.1972 14.5013 90.3945 14.576L89.8745 16.24C89.3732 16.192 88.9492 16.0827 88.6025 15.912C88.2612 15.736 87.9918 15.472 87.7945 15.12C87.4692 15.5093 87.0532 15.8 86.5465 15.992C86.0398 16.1787 85.5225 16.272 84.9945 16.272C84.1198 16.272 83.4212 16.024 82.8985 15.528C82.3812 15.0267 82.1225 14.384 82.1225 13.6C82.1225 12.6773 82.4825 11.9653 83.2025 11.464C83.9278 10.9627 84.9465 10.712 86.2585 10.712H87.4025V10.392C87.4025 9.94933 87.2585 9.62133 86.9705 9.408C86.6878 9.19467 86.2718 9.088 85.7225 9.088C85.4505 9.088 85.1012 9.128 84.6745 9.208C84.2478 9.28267 83.8212 9.392 83.3945 9.536L82.8105 7.856C83.3598 7.648 83.9305 7.49067 84.5225 7.384C85.1198 7.27733 85.6532 7.224 86.1225 7.224C87.3865 7.224 88.3198 7.48267 88.9225 8C89.5305 8.512 89.8345 9.25333 89.8345 10.224V13.552ZM85.8665 14.464C86.1385 14.464 86.4238 14.384 86.7225 14.224C87.0212 14.0587 87.2478 13.8267 87.4025 13.528V12.152H86.7785C86.0745 12.152 85.5572 12.2613 85.2265 12.48C84.8958 12.6933 84.7305 13.008 84.7305 13.424C84.7305 13.7493 84.8292 14.0053 85.0265 14.192C85.2292 14.3733 85.5092 14.464 85.8665 14.464ZM95.2923 14.088H99.5483L99.3083 16H92.3083V14.216L96.5243 9.408H92.6603V7.504H99.4683V9.28L95.2923 14.088ZM109.022 13.552C109.022 13.872 109.065 14.104 109.15 14.248C109.241 14.392 109.385 14.5013 109.582 14.576L109.062 16.24C108.561 16.192 108.137 16.0827 107.79 15.912C107.449 15.736 107.179 15.472 106.982 15.12C106.657 15.5093 106.241 15.8 105.734 15.992C105.227 16.1787 104.71 16.272 104.182 16.272C103.307 16.272 102.609 16.024 102.086 15.528C101.569 15.0267 101.31 14.384 101.31 13.6C101.31 12.6773 101.67 11.9653 102.39 11.464C103.115 10.9627 104.134 10.712 105.446 10.712H106.59V10.392C106.59 9.94933 106.446 9.62133 106.158 9.408C105.875 9.19467 105.459 9.088 104.91 9.088C104.638 9.088 104.289 9.128 103.862 9.208C103.435 9.28267 103.009 9.392 102.582 9.536L101.998 7.856C102.547 7.648 103.118 7.49067 103.71 7.384C104.307 7.27733 104.841 7.224 105.31 7.224C106.574 7.224 107.507 7.48267 108.11 8C108.718 8.512 109.022 9.25333 109.022 10.224V13.552ZM105.054 14.464C105.326 14.464 105.611 14.384 105.91 14.224C106.209 14.0587 106.435 13.8267 106.59 13.528V12.152H105.966C105.262 12.152 104.745 12.2613 104.414 12.48C104.083 12.6933 103.918 13.008 103.918 13.424C103.918 13.7493 104.017 14.0053 104.214 14.192C104.417 14.3733 104.697 14.464 105.054 14.464ZM111.544 16V14.304H112.664V9.184H111.544V7.504H114.592L115.056 9.416C115.36 8.68533 115.746 8.14133 116.216 7.784C116.69 7.42667 117.269 7.248 117.952 7.248C118.24 7.248 118.496 7.272 118.72 7.32C118.944 7.36267 119.154 7.424 119.352 7.504L118.584 9.592C118.429 9.54933 118.274 9.51733 118.12 9.496C117.965 9.47467 117.794 9.464 117.608 9.464C117.053 9.464 116.565 9.69067 116.144 10.144C115.728 10.5973 115.41 11.1733 115.192 11.872V14.304H116.872V16H111.544ZM117.296 11.056V8.576L117.672 7.504H119.352L118.88 11.056H117.296ZM124.354 4.632C125.196 4.632 125.9 4.77867 126.466 5.072C127.036 5.36533 127.463 5.75467 127.746 6.24C128.034 6.72 128.178 7.24267 128.178 7.808C128.178 8.256 128.1 8.696 127.946 9.128C127.796 9.55467 127.548 10.008 127.202 10.488C126.855 10.9627 126.394 11.4907 125.818 12.072C125.247 12.6533 124.54 13.32 123.698 14.072H128.434L128.161 16H120.794V14.208C121.524 13.504 122.159 12.88 122.698 12.336C123.236 11.792 123.69 11.3093 124.058 10.888C124.431 10.4667 124.73 10.0907 124.954 9.76C125.183 9.42933 125.348 9.12533 125.45 8.848C125.551 8.56533 125.602 8.29333 125.602 8.032C125.602 7.584 125.471 7.22933 125.21 6.968C124.954 6.70667 124.588 6.576 124.114 6.576C123.692 6.576 123.327 6.664 123.018 6.84C122.708 7.016 122.41 7.30133 122.122 7.696L120.57 6.528C120.986 5.952 121.498 5.49333 122.106 5.152C122.714 4.80533 123.463 4.632 124.354 4.632ZM133.947 4.632C134.79 4.632 135.494 4.77867 136.059 5.072C136.63 5.36533 137.057 5.75467 137.339 6.24C137.627 6.72 137.771 7.24267 137.771 7.808C137.771 8.256 137.694 8.696 137.539 9.128C137.39 9.55467 137.142 10.008 136.795 10.488C136.449 10.9627 135.987 11.4907 135.411 12.072C134.841 12.6533 134.134 13.32 133.291 14.072H138.027L137.755 16H130.387V14.208C131.118 13.504 131.753 12.88 132.291 12.336C132.83 11.792 133.283 11.3093 133.651 10.888C134.025 10.4667 134.323 10.0907 134.547 9.76C134.777 9.42933 134.942 9.12533 135.043 8.848C135.145 8.56533 135.195 8.29333 135.195 8.032C135.195 7.584 135.065 7.22933 134.803 6.968C134.547 6.70667 134.182 6.576 133.707 6.576C133.286 6.576 132.921 6.664 132.611 6.84C132.302 7.016 132.003 7.30133 131.715 7.696L130.163 6.528C130.579 5.952 131.091 5.49333 131.699 5.152C132.307 4.80533 133.057 4.632 133.947 4.632Z" fill="white"/>
</svg>
